<svg width="9" height="3" viewBox="0 0 9 3" fill="none" xmlns="http://www.w3.org/2000/svg">
<path d="M1.48793 2.6669C1.25355 2.6669 1.05232 2.58404 0.884233 2.41832C0.718513 2.25024 0.635653 2.04901 0.635653 1.81463C0.635653 1.58262 0.718513 1.38376 0.884233 1.21804C1.05232 1.05232 1.25355 0.96946 1.48793 0.96946C1.7152 0.96946 1.91406 1.05232 2.08452 1.21804C2.25497 1.38376 2.3402 1.58262 2.3402 1.81463C2.3402 1.97088 2.29995 2.11411 2.21946 2.24432C2.14134 2.37216 2.03835 2.47514 1.91051 2.55327C1.78267 2.62902 1.64181 2.6669 1.48793 2.6669ZM4.46644 2.6669C4.23207 2.6669 4.03084 2.58404 3.86275 2.41832C3.69703 2.25024 3.61417 2.04901 3.61417 1.81463C3.61417 1.58262 3.69703 1.38376 3.86275 1.21804C4.03084 1.05232 4.23207 0.96946 4.46644 0.96946C4.69371 0.96946 4.89258 1.05232 5.06303 1.21804C5.23349 1.38376 5.31871 1.58262 5.31871 1.81463C5.31871 1.97088 5.27847 2.11411 5.19798 2.24432C5.11985 2.37216 5.01687 2.47514 4.88903 2.55327C4.76119 2.62902 4.62032 2.6669 4.46644 2.6669ZM7.44496 2.6669C7.21058 2.6669 7.00935 2.58404 6.84126 2.41832C6.67554 2.25024 6.59268 2.04901 6.59268 1.81463C6.59268 1.58262 6.67554 1.38376 6.84126 1.21804C7.00935 1.05232 7.21058 0.96946 7.44496 0.96946C7.67223 0.96946 7.87109 1.05232 8.04155 1.21804C8.212 1.38376 8.29723 1.58262 8.29723 1.81463C8.29723 1.97088 8.25698 2.11411 8.17649 2.24432C8.09837 2.37216 7.99538 2.47514 7.86754 2.55327C7.7397 2.62902 7.59884 2.6669 7.44496 2.6669Z" fill="black"/>
</svg>
